<svg width="829" height="597.17519" xmlns="http://www.w3.org/2000/svg" data-name="Layer 1">

 <g>
  <title>Layer 1</title>
  <path stroke="null" id="svg_1" fill="#e6e6e6" d="m421.94931,500.87375c-5.12158,-3.79778 -12.05469,-6.57654 -20.771,-7.61653c-7.60058,-0.9069 -15.416,-0.75234 -23.14209,-0.72079l-97.69238,0.39891c-8.3667,0.03416 -16.38867,3.87263 -16,8.47275c0.38574,4.56129 7.03174,8.50937 16,8.47275q42.92578,-0.17528 85.85108,-0.35056c6.74658,-0.02754 13.49707,-0.09199 20.24414,-0.08025c1.51513,0.00262 3.02392,0.04493 4.53759,0.05401c0.3667,0.0022 0.63135,0.00048 0.81836,-0.00371c0.04688,0.00756 0.08643,0.01448 0.14746,0.02334c0.78956,0.1148 1.59961,0.19393 2.394,0.30297c-0.27832,0.0044 0.51513,0.26652 0.91357,0.35533c0.05469,0.05719 0.17139,0.15854 0.36621,0.31516c0.272,0.27007 1.07715,1.09016 1.11035,1.06433a71.76183,38.00125 0 0 1 2.98682,4.97398c1.85938,3.73181 2.26807,4.51188 2.53565,8.01308c0.33837,4.42278 7.11718,8.68342 16,8.47275c8.3789,-0.19874 16.36279,-3.72926 16,-8.47275c-0.61128,-7.99307 -3.2607,-16.97178 -12.29976,-23.67476z"/>
  <path stroke="null" id="svg_2" fill="#e6e6e6" d="m286.08652,522.37403c-1.835,-10.08705 -3.63477,-20.18056 -5.50537,-30.26174c-1.898,-10.22724 -5.77442,-19.59251 -14.54786,-26.30478c-2.34423,-1.79331 -4.7749,-3.4677 -7.21582,-5.13691c-0.85839,-0.58674 -1.71533,-1.17435 -2.56347,-1.77406c-0.05078,-0.03585 -0.083,-0.05833 -0.127,-0.08945c-0.09326,-0.07275 -0.20507,-0.15921 -0.35546,-0.27461c-3.65674,-2.80742 -7.19,-5.73968 -10.55567,-8.85657q-4.48315,-4.15224 -8.57471,-8.65865q-1.02246,-1.1255 -2.01855,-2.27117c-0.11426,-0.13136 -0.72949,-0.85264 -1.13477,-1.32329c-0.377,-0.47105 -1.06591,-1.3217 -1.18164,-1.47023q-1.1638,-1.49287 -2.28613,-3.01352a156.12618,141.62821 0 0 1 -13.187,-21.87611q-0.54713,-1.135 -1.06836,-2.28333c-0.09326,-0.23362 -0.21387,-0.53371 -0.374,-0.93323c-0.74121,-1.84905 -1.481,-3.69585 -2.15869,-5.5668q-2.15992,-5.96089 -3.71387,-12.09779q-0.76832,-3.03029 -1.3833,-6.09135q-0.31715,-1.57415 -0.59326,-3.15482c-0.03028,-0.17494 -0.21,-1.31188 -0.31592,-1.9543c-0.07813,-0.64554 -0.22364,-1.78847 -0.24317,-1.96503q-0.17577,-1.59335 -0.312,-3.18981q-0.30688,-3.59238 -0.415,-7.19675q-0.18456,-6.40565 0.25293,-12.81036c0.166,-2.39908 0.40235,-4.79192 0.69336,-7.18027c0.01758,-0.14676 0.03125,-0.26349 0.04395,-0.36868c0.01758,-0.10664 0.03808,-0.2278 0.0625,-0.37859c0.21533,-1.31989 0.44189,-2.63796 0.69531,-3.9519a159.29393,144.5018 0 0 1 3.73926,-14.79856q1.08765,-3.45491 2.36279,-6.85378q0.56836,-1.5088 1.17285,-3.00605c-0.02637,0.06441 1.18213,-2.7357 1.19824,-2.82978c4.79493,-10.27704 12.6377,-19.64592 12.64844,-31.32029c0.00733,-7.9042 -7.36426,-15.47585 -16,-15.11058a16.62541,15.08156 0 0 0 -16,15.11058c0,0.17748 -0.001,0.32891 -0.00146,0.47589c-0.08057,0.24608 -0.14795,0.4514 -0.2085,0.63297c-0.93506,1.84331 -2.08057,3.59486 -3.10693,5.39238c-2.81055,4.91983 -5.20948,10.00105 -7.48828,15.15687a159.82519,144.98373 0 0 0 -8.5293,25.96981a182.098,165.18827 0 0 0 -0.96777,59.00052c6.20361,34.30148 26.66162,67.13648 55.103,89.20744c2.46826,1.91528 4.99658,3.76618 7.54883,5.57971c1.05615,0.75033 2.12109,1.48688 3.19141,2.21865c0.50586,0.34597 2.60156,1.84512 1.67968,1.11878c1.98243,1.53473 2.8169,2.30713 3.32618,3.43755c0.07373,0.26089 0.17431,0.6147 0.31054,1.09844c0.35889,1.27488 0.69971,2.5468 0.98291,3.83955c2.47559,11.29518 4.19629,22.77971 6.26416,34.14798c1.42139,7.81105 12.022,12.89487 19.68213,10.55384c8.91596,-2.72509 12.69774,-10.21835 11.17479,-18.58785z"/>
  <path stroke="null" id="svg_3" fill="#3f3d56" d="m423.56769,534.70774a25.37427,22.59607 0 0 1 -25.43994,-22.4854l0,-16.25314c-19.10889,1.90495 -84.54321,1.46361 -103.29981,-1.2201l0,16.82318a25.4409,22.6554 0 0 1 -50.88037,0l0,-33.03066a163.30721,145.42688 0 0 1 -84,-126.79825c0,-44.37424 22.583,-85.76909 61.95874,-113.57017a164.07476,146.11039 0 0 1 89.32251,-31.32224c4.427,-0.30916 8.88086,-0.46569 13.23877,-0.46569c15.3523,0 84.61866,2.11192 101.99781,6.56447l39.62791,-35.01646a4.16,3.70453 0 0 1 4.55,-0.80746a4.10044,3.65149 0 0 1 2.58448,3.42551l0,5.56748l7.71631,-6.80537a4.1505,3.69607 0 0 1 4.54638,-0.80877a4.10219,3.65305 0 0 1 2.5874,3.42682l0,62.21532a162.75915,144.93882 0 0 1 -39.07031,238.53782l0,29.53775a25.37427,22.59607 0 0 1 -25.43988,22.48535zm-23.44,-40.75827l0,18.27287a23.44072,20.87422 0 0 0 46.87988,0l0,-30.66263l0.571,-0.24133a162.45628,144.66911 0 0 0 66.53076,-51.81139a160.32526,142.77142 0 0 0 -27.69922,-184.30017l-0.33228,-0.26568l0,-63.0097a2.10314,1.87287 0 0 0 -1.34179,-1.77711a2.1492,1.91389 0 0 0 -2.38135,0.42135l-11.127,9.81388l0,-9.83823a2.10314,1.87287 0 0 0 -1.3418,-1.7771a2.15435,1.91847 0 0 0 -2.38525,0.42438l-40.47632,35.7661l-0.5752,-0.16044c-16.156,-4.50299 -86.51269,-6.63796 -101.98169,-6.63796c-4.30591,0 -8.70727,0.15479 -13.08154,0.46047a162.07488,144.32947 0 0 0 -88.23682,30.94178c-38.89453,27.46148 -61.20166,68.34761 -61.20166,112.17483a161.31464,143.65247 0 0 0 83.48428,125.49513l0.51587,0.25437l0,34.07944a23.441,20.87447 0 0 0 46.88037,0l0,-18.95514l1.18482,0.19828c16.85571,2.82416 87.83179,3.26941 104.98486,1.26576l1.13008,-0.13175z"/>
  <path id="svg_4" fill="#ef6820" d="m287.99785,119.1176l-110.74024,33.28a13.8823,13.8823 0 0 0 7.99024,26.59l96.90966,-29.13l2.03028,-0.61005a67.51666,67.51666 0 0 1 8.29,-29.86a6.16489,6.16489 0 0 0 -2,-0.52a6.367,6.367 0 0 0 -2.47994,0.25005z"/>
  <path id="svg_5" fill="#2f2e41" d="m183.33269,186.08284a7.01287,7.01287 0 0 1 -6.63781,-4.80127l-6.92481,-20.896a6.99947,6.99947 0 0 1 4.44324,-8.84668l90.13122,-29.87012a6.99966,6.99966 0 0 1 8.84668,4.44189l6.92481,20.896a6.97565,6.97565 0 0 1 -4.19312,8.75928q-0.12487,0.04688 -0.25219,0.08838l-90.12915,29.86914a7.003,7.003 0 0 1 -2.20887,0.35938z"/>
  <path id="svg_6" fill="#3f3d56" d="m352.12769,82.0076a70.03128,70.03128 0 0 0 -69.97022,67.85c-0.02,0.71 -0.02978,1.43 -0.02978,2.15a70,70 0 1 0 70,-70zm0,138a68.071,68.071 0 0 1 -68,-68q0,-1.395 0.06006,-2.76a67.998,67.998 0 1 1 67.93994,70.76z"/>
  <path id="svg_7" fill="#e6e6e6" d="m411.12769,152.0076a59,59 0 0 1 -118,0c0,-1.87 0.08984,-3.71 0.25976,-5.53a59,59 0 0 1 117.74024,5.53z"/>
  <path id="svg_8" fill="#ef6820" d="m369.69755,155.9276a14.04753,14.04753 0 0 0 -5.46972,-4.33a53.13872,53.13872 0 0 0 -8.22022,-2.7l0,-16.06a23.39587,23.39587 0 0 1 11.68994,5.33l3.26026,-6.95a21.56068,21.56068 0 0 0 -6.36035,-3.93a31.25931,31.25931 0 0 0 -8.06983,-2.07l0,-8.14l-7.5498,0l0,8.22a20.67243,20.67243 0 0 0 -8.25,2.77a16.3988,16.3988 0 0 0 -5.59034,5.48a13.77113,13.77113 0 0 0 -1.98974,7.29a12.46275,12.46275 0 0 0 2.29,7.8a14.51022,14.51022 0 0 0 5.6997,4.52a52.69206,52.69206 0 0 0 8.36036,2.77l0,15.39a24.98812,24.98812 0 0 1 -13.91012,-5.55l-3.25977,6.96a24.58042,24.58042 0 0 0 7.43995,4.22a34.16142,34.16142 0 0 0 9.21,1.92l0,8.07l7.5498,0l0,-8.22a19.5385,19.5385 0 0 0 11.21,-5.14a13.58959,13.58959 0 0 0 4.18018,-10.1a12.0549,12.0549 0 0 0 -2.2203,-7.55zm-20.1997,-8.73a14.49857,14.49857 0 0 1 -5.03028,-2.7a5.32046,5.32046 0 0 1 -1.77978,-4.18a6.72557,6.72557 0 0 1 1.81982,-4.81a9.20221,9.20221 0 0 1 4.99024,-2.59l0,14.28zm11.25,21.28a8.5575,8.5575 0 0 1 -4.74024,2.47l0,-13.24a13.23964,13.23964 0 0 1 4.74024,2.37a4.65775,4.65775 0 0 1 1.62988,3.7a6.8039,6.8039 0 0 1 -1.62988,4.7z"/>
  <path id="svg_9" fill="#2f2e41" d="m186.54669,270.77181a7.02318,7.02318 0 0 1 -6.775,-5.21582l-3.77014,-14.27a7.0039,7.0039 0 0 1 4.97509,-8.55127l118.94068,-31.42969a7.01537,7.01537 0 0 1 8.551,4.98535l3.19385,12.08984l-0.59839,0.04639a160.16254,160.16254 0 0 0 -84.10754,31.8711l-0.17346,0.084l-38.46021,10.15967a6.96258,6.96258 0 0 1 -1.77588,0.23043z"/>
  <path id="svg_10" fill="#3f3d56" d="m166.8478,341.2581a98.108,98.108 0 0 1 -39.12217,-14.79216a95.527,95.527 0 0 1 -16.17394,-13.22834c-4.82786,-4.92434 -9.4465,-10.52122 -11.83781,-17.0792a25.299,25.299 0 0 1 0.33124,-18.7693a24.33352,24.33352 0 0 1 13.16876,-13.12553c5.98961,-2.38861 13.22619,-2.64412 19.05541,-0.02821a17.08926,17.08926 0 0 1 6.96433,5.60584a11.43493,11.43493 0 0 1 1.8103,3.75816a7.67372,7.67372 0 0 1 0.09036,3.75911a9.01634,9.01634 0 0 1 -4.77388,5.723a24.06819,24.06819 0 0 1 -8.1521,2.48626c-2.86013,0.39 -6.96868,0.74485 -9.268,-1.551a4.66934,4.66934 0 0 1 -1.09261,-1.61079a3.1144,3.1144 0 0 1 -0.17238,-1.45807c-0.03354,0.21724 0.13872,-0.47236 0.12891,-0.44486c-0.03636,0.10194 -0.19384,0.3504 0.03,-0.03135a3.39683,3.39683 0 0 1 0.23311,-0.363c-0.076,0.09827 -0.24291,0.26227 0.05515,-0.01912a1.96186,1.96186 0 0 1 0.91427,-0.56441c0.13841,-0.04032 0.27883,-0.07242 0.41763,-0.11033c0.35277,-0.09637 -0.35161,0.00526 0.0093,-0.00631c0.13927,-0.00446 0.28021,-0.001 0.419,-0.00726c0.354,-0.01591 -0.34927,-0.09655 -0.01,-0.01126c0.13173,0.03312 0.26222,0.06547 0.392,0.10635c0.28208,0.08887 -0.19974,-0.20693 -0.00859,0.01446c0.224,0.25945 -0.23521,-0.25235 0.0194,-0.00119a4.6244,4.6244 0 0 1 0.35767,0.39431a2.35924,2.35924 0 0 0 3.315,0a2.39935,2.39935 0 0 0 0,-3.315c-2.3114,-2.86535 -6.87707,-2.15735 -9.21528,0.26436c-2.982,3.08848 -1.80111,7.98318 1.09954,10.678c3.2837,3.05076 7.9344,3.26284 12.15834,2.75114a29.817,29.817 0 0 0 10.26918,-2.902a14.39829,14.39829 0 0 0 7.024,-7.58817a13.17381,13.17381 0 0 0 -1.05641,-10.76889c-3.7293,-7.01118 -11.45152,-10.60575 -19.08437,-11.22837a29.81221,29.81221 0 0 0 -21.81879,7.16278a30.15422,30.15422 0 0 0 -9.88822,20.075c-0.66626,7.996 2.43608,15.76128 6.95922,22.21432a84.62746,84.62746 0 0 0 16.77944,17.3533a102.47323,102.47323 0 0 0 42.812,20.19071q2.79237,0.57685 5.61474,0.98758a2.42141,2.42141 0 0 0 2.88342,-1.63715a2.36125,2.36125 0 0 0 -1.63716,-2.88343l-0.00001,0.00002z"/>
  <path id="svg_11" fill="#ccc" d="m390.23309,239.38185q-30.6631,-0.43278 -61.133,1.55634c-6.9433,0.45338 -12.95072,2.90742 -12.95072,7.03206c0,3.44855 5.95964,7.48858 12.95072,7.032q30.45443,-1.9887 61.133,-1.55633c16.67391,0.23535 16.66408,-13.82891 0,-14.06407z"/>
  <path id="svg_12" fill="#3f3d56" d="m360.01938,252.74935c-2.20923,0 -54.10571,-0.08252 -54.10571,-7.251c0,-7.168 51.89648,-7.25049 54.10571,-7.25049s54.10571,0.08252 54.10571,7.25049c0,7.16848 -51.89648,7.251 -54.10571,7.251zm-52.07642,-7.251c1.42017,2.17334 20.49634,5.251 52.07642,5.251s50.656,-3.07764 52.07641,-5.251c-1.42016,-2.17285 -20.49633,-5.25049 -52.07641,-5.25049s-50.65625,3.07766 -52.07642,5.25051l0,-0.00002z"/>
  <path id="svg_13" fill="#3f3d56" d="m524.67324,441.19969c11.48831,-0.319 25.78612,-0.71776 36.801,-8.76407a28.26188,28.26188 0 0 0 11.12052,-21.10332c0.22483,-6.35459 -2.071,-11.90149 -6.46488,-15.61408c-5.75306,-4.86143 -14.154,-6.00169 -23.20738,-3.34108l9.38,-68.548l-6.88568,-0.94343l-11.02713,80.58689l5.75009,-2.63856c6.66637,-3.05766 15.81731,-4.61365 21.50378,0.19174a12.21541,12.21541 0 0 1 4.00576,10.06213a21.36089,21.36089 0 0 1 -8.275,15.7346c-8.5719,6.26126 -19.96858,7.06894 -32.89451,7.43036l0.19343,6.94682z"/>
  <rect id="svg_14" fill="#3f3d56" height="6.95017" width="37.43223" y="329.7408" x="468.20272"/>
  <path id="svg_15" fill="#2f2e41" d="m203.4852,302.7376a7.01243,7.01243 0 0 1 -6.904,-5.91748l-2.28484,-14.58152a7.00763,7.00763 0 0 1 5.83215,-7.99951l121.53149,-19.04249a7.0074,7.0074 0 0 1 7.999,5.832l2.28467,14.582a7.00726,7.00726 0 0 1 -5.83179,7.99952l-121.5315,19.042a7.09551,7.09551 0 0 1 -1.09518,0.08548z"/>
  <circle id="svg_16" fill="#ef6820" r="51" cy="80.85472" cx="153.18938"/>
  <path id="svg_17" fill="#2f2e41" d="m182.06469,94.05066a12.09515,12.09515 0 0 0 4.36685,-2.67614a8.13345,8.13345 0 0 0 2.25475,-6.483a5.47156,5.47156 0 0 0 -2.51209,-4.16412c-1.8457,-1.13505 -4.28459,-1.09217 -6.74692,0.0493l-0.2842,-19.90787l-1.99969,0.02846l0.334,23.40381l1.52231,-0.99844c1.76529,-1.15588 4.30177,-1.99407 6.12663,-0.87157a3.51373,3.51373 0 0 1 1.57291,2.68953a6.14619,6.14619 0 0 1 -1.67626,4.83366c-2.16794,2.15111 -5.37684,2.87189 -9.03924,3.53112l0.35442,1.96814a32.96256,32.96256 0 0 0 5.72653,-1.40288z"/>
  <rect id="svg_18" transform="rotate(-8.61162 -256.725 -85.4931)" fill="#2f2e41" height="1.99975" width="10.77167" y="126.18594" x="162.11266"/>
  <rect id="svg_19" transform="rotate(-8.61162 -257.866 -90.4694)" fill="#2f2e41" height="1.99975" width="10.77167" y="126.29961" x="127.35468"/>
  <path id="svg_20" fill="#2f2e41" d="m186.89243,301.84603a9.03041,9.03041 0 0 1 -8.43445,-5.855l-35.16309,-94.16893a46.53156,46.53156 0 0 1 27.28418,-59.80225l28.59168,-10.67625a8.95769,8.95769 0 0 1 6.87805,0.23877a8.83186,8.83186 0 0 1 4.67541,4.98584l65.13648,122.98387a9.0015,9.0015 0 0 1 -5.25659,11.63818l-80.56641,30.08399a8.97612,8.97612 0 0 1 -3.14526,0.57178z"/>
  <path id="svg_21" fill="#e6e6e6" d="m190.49608,134.58247l64.629,86.42566l-43.7316,-85.51853a8.079,8.079 0 0 0 -10.349,-4.846l-10.5484,3.93887z"/>
  <path id="svg_22" fill="#ef6820" d="m292.82805,200.2176l-115.39525,-7.43312a13.87944,13.87944 0 1 1 1.78425,-27.70148l115.3953,7.43258a6.49946,6.49946 0 0 1 6.06882,6.90407l-0.9485,14.72919a6.50056,6.50056 0 0 1 -6.90462,6.06876z"/>
  <path id="svg_23" fill="#2f2e41" d="m261.99277,204.98274q-0.22852,0 -0.45825,-0.01464l-0.00025,0l-94.7561,-6.10352a6.99919,6.99919 0 0 1 -6.53565,-7.43506l1.62036,-25.1582a6.99967,6.99967 0 0 1 7.43592,-6.53516l94.756,6.103a7.00755,7.00755 0 0 1 6.5354,7.43506l-1.62012,25.15869a7.01886,7.01886 0 0 1 -4.54614,6.11084a6.926,6.926 0 0 1 -2.43117,0.43899z"/>
  <path id="svg_24" fill="#2f2e41" d="m152.60475,46.94054c6.70923,-5.77031 15.92258,-0.60839 23.61673,-1.512c7.36114,-0.86455 13.17369,-7.46753 14.65857,-14.48237c1.73235,-8.184 -2.51553,-16.38319 -8.77663,-21.48577c-6.85745,-5.58858 -15.95214,-7.19293 -24.57042,-6.159c-9.87767,1.185 -18.91123,5.78935 -27.017,11.35854a121.85037,121.85037 0 0 0 -21.44164,18.16917c-5.75111,6.35166 -10.62377,13.9227 -12.17974,22.46976c-1.414,7.76751 -0.33431,16.375 4.2575,22.95514a24.20528,24.20528 0 0 0 9.47417,7.80529c3.93743,1.93344 8.13754,3.31565 11.95217,5.50169c5.76775,3.30532 11.37351,10.15883 9.56677,17.29094a9.79281,9.79281 0 0 1 -2.226,4.19c-1.29065,1.43275 -3.6187,-0.46055 -2.32465,-1.89708c2.27282,-2.52305 2.18331,-5.88792 0.97206,-8.90023a16.27233,16.27233 0 0 0 -7.23346,-7.95427c-3.993,-2.28294 -8.40146,-3.6921 -12.494,-5.77156a27.02254,27.02254 0 0 1 -9.91143,-8.21385c-4.89822,-6.807 -6.36338,-15.66585 -5.2525,-23.861c1.20214,-8.86841 5.75869,-16.9272 11.47065,-23.68045c6.21621,-7.34944 13.8519,-13.57054 21.65246,-19.15936c8.37006,-5.99685 17.61734,-11.06678 27.85008,-12.90049c8.87016,-1.58954 18.48474,-0.61091 26.24132,4.22294c7.24026,4.51209 12.79232,12.27377 13.34449,20.9467a22.23537,22.23537 0 0 1 -10.37627,19.94206a19.101,19.101 0 0 1 -11.41,2.64333c-4.2616,-0.27279 -8.52728,-1.57778 -12.81609,-1.21548a8.94077,8.94077 0 0 0 -5.26807,2.1285c-1.46588,1.26074 -3.21292,-1.1807 -1.75908,-2.43109l0.00001,-0.00006z"/>
  <path stroke="null" id="svg_26" fill="#3f3d56" d="m569.2141,546.35639l-458.59269,0a1.20366,1 0 0 1 0,-2l458.59269,0a1.20366,1 0 1 1 0,2z"/>
 </g>
</svg>