<svg width="829" height="597.17519" xmlns="http://www.w3.org/2000/svg" data-name="Layer 1">
 <g>
  <title>Layer 1</title>
  <path d="m246.62988,481.38901c-2.85009,22.33 -13.33008,42.76 -24.51025,62.44c-0.36963,0.67 -0.75,1.33 -1.13965,2l-116.20019,0c-2.3501,-0.61 -4.66993,-1.28 -6.98,-2a127.02725,127.02725 0 0 1 -36.68994,-18.05c-42.75,-30.8 -59.20019,-89 -51.77,-141.15c4.62012,-32.4 18.83985,-65.48 46.52979,-82.93c14.62012,-9.23 33.3999,-12.23 50.23,-8.8c0.44043,0.08 0.88037,0.18 1.33008,0.27c14.48,3.26 27.37988,11.36 34.72021,24.41c13.19971,23.45 5.33985,52.5 -1.1499,78.6c-6.47021,26.1 -9.98047,57.34 8.7998,76.59c-6.20019,-18.25 -0.08007,-40.02 14.73,-52.36c11.18994,-9.31 26.77,-12.8 40.98,-9.91c1.35986,0.29 2.70019,0.62 4.02,1.02a44.59846,44.59846 0 0 1 9.16992,3.84c22.14986,12.37003 31.12007,40.86002 27.93013,66.03z" fill="#f2f2f2" id="svg_1"/>
  <path d="m177.73,543.82902c3.21973,0.75 6.44971,1.41 9.69971,2l-17.56985,0c-2.30029,-0.62 -4.59033,-1.28 -6.85986,-2q-7.48534,-2.34 -14.74023,-5.37c-19.39991,-8.14 -37.27,-20.36 -50.79,-36.62a103.37091,103.37091 0 0 1 -16.02,-26.17a118.85639,118.85639 0 0 1 -8.19971,-33.49c-2.4502,-23.6 0.0498,-47.85 4.71973,-71.03a296.45051,296.45051 0 0 1 23.16015,-69.47q1.905,-3.97494 3.93994,-7.9a1.54158,1.54158 0 0 1 1.02979,-0.88a1.77741,1.77741 0 0 1 1.33008,0.27a2.1062,2.1062 0 0 1 0.83008,2.78a293.03874,293.03874 0 0 0 -24.58008,66.96c-5.31983,22.67 -8.33985,46.39 -7.31006,69.7c0.98,21.78 6.67041,43.2 19.58008,61.00994c11.79,16.26 28.06982,29.08 46.08008,37.81a169.131,169.131 0 0 0 35.70015,12.40006z" fill="#fff" id="svg_2"/>
  <path d="m216.29,545.82902l-5.18018,0c-0.58007,-0.66 -1.14013,-1.33 -1.68994,-2a110.41123,110.41123 0 0 1 -23.24023,-49.66a107.73445,107.73445 0 0 1 9.29,-67.05a110.2407,110.2407 0 0 1 10.04,-16.62c1.35986,0.29 2.70019,0.62 4.02,1.02a106.05621,106.05621 0 0 0 -19.77,45.34a105.09492,105.09492 0 0 0 24.74035,86.97c0.57959,0.66998 1.17969,1.34002 1.79,2z" fill="#fff" id="svg_3"/>
  <path d="m682.92938,528.82216c0.75219,5.8933 3.51805,11.28515 6.4687,16.47906c0.09755,0.17682 0.19794,0.351 0.30078,0.52783l30.66735,0c0.62024,-0.161 1.23248,-0.33782 1.84215,-0.52783a33.52491,33.52491 0 0 0 9.68315,-4.76373c11.2825,-8.12868 15.624,-23.48872 13.663,-37.25207c-1.21933,-8.55094 -4.97218,-17.28137 -12.28006,-21.88674a18.43729,18.43729 0 0 0 -13.25661,-2.32248c-0.11624,0.02112 -0.23235,0.0475 -0.351,0.07126a13.67963,13.67963 0 0 0 -9.1633,6.44224c-3.48365,6.18889 -1.40929,13.85571 0.30348,20.744c1.70761,6.88828 2.634,15.13308 -2.32243,20.21351a12.64393,12.64393 0 0 0 -14.70288,-16.4342c-0.35889,0.07655 -0.71263,0.16363 -1.061,0.26921a11.77068,11.77068 0 0 0 -2.42011,1.01345c-5.8457,3.26464 -8.21311,10.78367 -7.37122,17.42649z" fill="#f2f2f2" id="svg_4"/>
  <path d="m701.11332,545.30122c-0.84974,0.19794 -1.70219,0.37211 -2.55993,0.52783l4.637,0c0.60709,-0.16362 1.21147,-0.33782 1.81044,-0.52783q1.97553,-0.61758 3.89022,-1.41724a34.90012,34.90012 0 0 0 13.40442,-9.66469a27.28163,27.28163 0 0 0 4.228,-6.90674a31.36842,31.36842 0 0 0 2.164,-8.83864a62.85793,62.85793 0 0 0 -1.24562,-18.7461a78.23849,78.23849 0 0 0 -6.11239,-18.33442q-0.50277,-1.04906 -1.03982,-2.08494a0.40684,0.40684 0 0 0 -0.27178,-0.23225a0.46908,0.46908 0 0 0 -0.351,0.07126a0.55587,0.55587 0 0 0 -0.21908,0.73369a77.33813,77.33813 0 0 1 6.48714,17.672a68.02194,68.02194 0 0 1 1.92926,18.39511a29.3506,29.3506 0 0 1 -5.16755,16.10164a32.4858,32.4858 0 0 1 -12.16137,9.97875a44.6366,44.6366 0 0 1 -9.42194,3.27257z" fill="#fff" id="svg_5"/>
  <path d="m690.93662,545.82905l1.36714,0c0.15309,-0.17418 0.3009,-0.351 0.446,-0.52783a29.13962,29.13962 0 0 0 6.13352,-13.10618a28.43312,28.43312 0 0 0 -2.45181,-17.69573a29.095,29.095 0 0 0 -2.64975,-4.38633c-0.35889,0.07655 -0.71263,0.16363 -1.061,0.26921a27.99,27.99 0 0 1 5.21767,11.96606a27.73652,27.73652 0 0 1 -6.5294,22.953c-0.15291,0.17679 -0.31129,0.35362 -0.47237,0.5278z" fill="#fff" id="svg_6"/>
  <path d="m406.50977,393.50822l-95.981,0l-1.01754,-29.5107a8.85956,8.85956 0 0 1 9.93091,-9.09863l55.85449,6.83936l0.00684,0a31.29061,31.29061 0 0 1 31.2063,31.27l0,0.49997z" fill="#ef6820" id="svg_7"/>
  <path d="m363.73082,288.82902l-66.94211,0a6.77712,6.77712 0 0 0 -6.77894,6.77894l0,66.94211a6.77713,6.77713 0 0 0 6.77894,6.77895l66.94211,0a6.77714,6.77714 0 0 0 6.779,-6.77895l0,-66.94211a6.77713,6.77713 0 0 0 -6.779,-6.77894z" fill="#ccc" id="svg_8"/>
  <path d="m348.65445,338.88578l-31.60628,6.15492a7.2107,7.2107 0 0 1 -8.44659,-5.69307l-2.42958,-12.47617a7.21069,7.21069 0 0 1 5.69307,-8.44658l31.60628,-6.15491a7.21069,7.21069 0 0 1 8.44659,5.69307l2.42957,12.47616a7.21068,7.21068 0 0 1 -5.69306,8.44658z" fill="#3f3d56" id="svg_9"/>
  <path d="m342.331,324.1464l-24.12058,4.69717a1.69474,1.69474 0 0 1 -0.64789,-3.327l24.12059,-4.69717a1.69474,1.69474 0 0 1 0.64788,3.327z" fill="#fff" id="svg_10"/>
  <path d="m337.64259,331.10241l-12.47616,2.42957a1.69474,1.69474 0 0 1 -0.64789,-3.327l12.47617,-2.42957a1.69474,1.69474 0 1 1 0.64788,3.327z" fill="#fff" id="svg_11"/>
  <path d="m370.50977,295.60796l0,8.89737l-80.5,0l0,-8.89737a6.77712,6.77712 0 0 1 6.77894,-6.77894l66.94211,0a6.77713,6.77713 0 0 1 6.77895,6.77894z" fill="#b3b3b3" id="svg_12"/>
  <path d="m531.26052,307.29157a10.74267,10.74267 0 0 0 -15.19331,-6.3648l-92.09655,-33.04273l-4.05633,23.00726l91.8034,25.2454a10.80091,10.80091 0 0 0 19.54279,-8.84513z" fill="#ffb8b8" id="svg_13"/>
  <path d="m531.26052,307.29157a10.74267,10.74267 0 0 0 -15.19331,-6.3648l-92.09655,-33.04273l-4.05633,23.00726l91.8034,25.2454a10.80091,10.80091 0 0 0 19.54279,-8.84513z" opacity="0.2" id="svg_14"/>
  <path d="m440.31732,272.0764l-8.69674,22.72023a4.81688,4.81688 0 0 1 -6.86086,2.47581l-21.13624,-11.89627a13.37737,13.37737 0 0 1 9.63746,-24.95856l23.6022,5.23464a4.81686,4.81686 0 0 1 3.45418,6.42415z" fill="#ef6820" id="svg_15"/>
  <path d="m538.50977,328.32902l-33,15l4.33259,16.311a253.73547,253.73547 0 0 1 6.53976,96.64985l0,0l24.12766,5.03915l20,-51l-7,-58l-15.00001,-24z" fill="#ef6820" id="svg_16"/>
  <path d="m603.25977,403.82902c-21.68213,0 -39.35157,15.762 -40.209,35.5l80.418,0c-0.85744,-19.73804 -18.52688,-35.5 -40.209,-35.5z" fill="#3f3d56" id="svg_17"/>
  <path d="m586.38135,407.23057c-1.12842,-89.09839 -51.87158,-80.90155 -51.87158,-80.90155s0.94921,27.73333 1.40527,28.59582c32.33545,61.17957 -21.03027,132.90381 -88.96,119.70886q-1.92114,-0.37317 -3.69141,-0.75714a34.5813,34.5813 0 0 1 -27.16328,-38.76284c6.69158,-53.73562 -26.59062,-52.7847 -26.59062,-52.7847l-48.66647,0l-25.27335,-22.7459a7.3469,7.3469 0 0 0 -11.80868,2.92095l-3.25146,8.825s-48,5 -44,52l14.83984,0a29.96684,29.96684 0 0 0 0.16016,4l110.75092,-0.90044c6.49187,-0.05278 12.22225,5.20768 12.249,11.69971a11.75308,11.75308 0 0 1 -12.14443,11.79594l-17.85546,-0.59521c-5.5,24.5 8,41 22.875,51.375a83.1484,83.1484 0 0 0 47.61766,14.625l48.50734,0c63,0 74,-53 74,-53c32.99997,-14.00005 28.87155,-55.0985 28.87155,-55.0985z" fill="#3f3d56" id="svg_18"/>
  <circle cx="600.25977" cy="488.07903" r="56.25" fill="#3f3d56" id="svg_19"/>
  <circle cx="600.25977" cy="488.07903" r="13.78676" fill="#fff" id="svg_20"/>
  <circle cx="316.25977" cy="479.57903" r="64.75" fill="#3f3d56" id="svg_21"/>
  <circle cx="316.25977" cy="479.57903" r="15.8701" fill="#fff" id="svg_22"/>
  <path d="m505.60352,347.76115l-11.87352,-32.24952a13.63843,13.63843 0 0 1 8.08691,-17.51074l34.04,-12.53125a23.99761,23.99761 0 0 1 30.812,14.22705a23.84491,23.84491 0 0 1 1.481,8.29248a24.1887,24.1887 0 0 1 -8.98779,18.73a23.81344,23.81344 0 0 1 -6.72022,3.78907l-46.83838,17.25291z" fill="#3f3d56" id="svg_23"/>
  <path d="m567.6499,307.98899a23.54938,23.54938 0 0 1 -8.80029,18.34a29.98827,29.98827 0 0 1 -19.69971,-41.3a23.50519,23.50519 0 0 1 28.5,22.96z" fill="#ef6820" id="svg_24"/>
  <ellipse cx="265.00977" cy="412.82903" rx="14" ry="17" fill="#ef6820" id="svg_25"/>
  <polygon points="450.0710144042969,473.0050048828125 462.33099365234375,473.0050048828125 468.16400146484375,441.2080078125 450.0690002441406,441.208984375 450.0710144042969,473.0050048828125 " fill="#ffb8b8" id="svg_26"/>
  <path d="m446.94363,469.00246l24.1438,-0.001l0.001,0a15.38605,15.38605 0 0 1 15.38648,15.38623l0,0.5l-39.53052,0.00146l-0.00076,-15.88669z" fill="#2f2e41" id="svg_27"/>
  <path d="m464.30136,459.95452q-0.21423,0 -0.43018,-0.02051l-16.96655,-1.23535a4.49992,4.49992 0 0 1 -3.80932,-6.0293l22.70654,-51.01464a3.49812,3.49812 0 0 0 -0.19629,-2.79883a3.45084,3.45084 0 0 0 -2.21118,-1.75977c-10.67725,-2.791 -38.072,-10.22265 -61.78638,-18.918c-10.15991,-3.72558 -16.55884,-9.10937 -19.0188,-16.00195c-3.24316,-9.08691 1.55469,-17.374 1.7605,-17.72168l0.16089,-0.27246l22.3147,2.02832l24.19116,2.05762l53.01343,28.42773a20.086,20.086 0 0 1 8.8186,25.78418l-24.44092,54.80764a4.49689,4.49689 0 0 1 -4.1062,2.667z" fill="#2f2e41" id="svg_28"/>
  <circle cx="410.70532" cy="225.7202" r="24.56103" fill="#ffb8b8" id="svg_29"/>
  <polygon points="443.0710144042969,476.0050048828125 455.33099365234375,476.0050048828125 461.16400146484375,444.2080078125 443.0690002441406,444.208984375 443.0710144042969,476.0050048828125 " fill="#ffb8b8" id="svg_30"/>
  <path d="m439.94363,472.00246l24.1438,-0.001l0.001,0a15.38605,15.38605 0 0 1 15.38648,15.38623l0,0.5l-39.53052,0.00146l-0.00076,-15.88669z" fill="#2f2e41" id="svg_31"/>
  <path d="m457.30136,462.95452q-0.21423,0 -0.43018,-0.02051l-16.96655,-1.23535a4.49992,4.49992 0 0 1 -3.80932,-6.0293l22.70654,-51.01464a3.49812,3.49812 0 0 0 -0.19629,-2.79883a3.45084,3.45084 0 0 0 -2.21118,-1.75977c-10.67725,-2.791 -38.072,-10.22265 -61.78638,-18.918c-10.15991,-3.72558 -16.55884,-9.10937 -19.0188,-16.00195c-3.24316,-9.08691 1.55469,-17.374 1.7605,-17.72168l0.16089,-0.27246l22.3147,2.02832l24.19116,2.05762l53.01343,28.42773a20.086,20.086 0 0 1 8.8186,25.78418l-24.44092,54.80764a4.49689,4.49689 0 0 1 -4.1062,2.667z" fill="#2f2e41" id="svg_32"/>
  <path d="m418.28012,259.20838l-26,-9s-16.322,12.54 -8.481,43.64856a77.01209,77.01209 0 0 1 -3.40009,48.32025a49.7787,49.7787 0 0 1 -2.61889,5.53119s29,35 56,9l-10.5,-50.5s16.49998,-33.5 -5.00002,-47z" fill="#ef6820" id="svg_33"/>
  <path d="m413.75474,251.11652c-3.49562,-5.23231 -6.25435,-12.48756 -2.40565,-17.46591c3.79907,-4.91416 11.29215,-4.19018 17.11054,-6.36466c8.104,-3.02867 12.80409,-12.5493 11.33824,-21.07564s-8.31031,-15.59442 -16.46405,-18.48645s-17.34839,-1.95148 -25.33312,1.37887c-9.82931,4.0997 -18.26115,12.03028 -21.79686,22.07625s-1.6456,22.10808 5.68929,29.82963c7.86381,8.27834 20.20556,10.48454 31.62276,10.35067" fill="#2f2e41" id="svg_34"/>
  <path d="m390.90785,206.48394c-4.40484,3.58587 -11.12527,1.99318 -15.8536,-1.15387s-8.56507,-7.62825 -13.681,-10.09566c-9.01922,-4.34995 -19.92379,-1.45825 -28.70171,3.36009s-16.55916,11.475 -25.83124,15.25617s-21.10393,3.96808 -28.12484,-3.17161a25.732,25.732 0 0 0 37.7101,30.37145c10.1594,-6.18839 15.77105,-19.1637 27.16592,-22.57933c6.3055,-1.89008 13.07632,-0.36777 19.44917,1.28106s13.01783,3.43041 19.44912,2.02674s12.447,-7.18312 11.6288,-13.71475l-3.21072,-1.58029z" fill="#2f2e41" id="svg_35"/>
  <path d="m530.03838,306.29118a10.74265,10.74265 0 0 0 -15.86252,-4.44158l-95.46976,-21.42716l-1.18664,23.33194l94.21678,13.72558a10.80091,10.80091 0 0 0 18.30214,-11.18878z" fill="#ffb8b8" id="svg_36"/>
  <path d="m435.44513,282.56587l-5.827,23.61966a4.81688,4.81688 0 0 1 -6.503,3.3034l-22.44252,-9.19753a13.37737,13.37737 0 0 1 6.48437,-25.957l24.06772,2.28255a4.81687,4.81687 0 0 1 4.22042,5.94888l0.00001,0.00004z" fill="#ef6820" id="svg_37"/>
  <circle cx="519.00977" cy="317.82903" r="7" fill="#ef6820" id="svg_38"/>
  <path d="m829,544.82902a1.00308,1.00308 0 0 1 -1,1l-827,0a1,1 0 0 1 0,-2l827,0a1.00308,1.00308 0 0 1 1,1z" fill="#3f3d56" id="svg_39"/>
 </g>

</svg>