<svg width="829" height="597.17519" xmlns="http://www.w3.org/2000/svg" data-name="Layer 1">

 <g>
  <title>Layer 1</title>
  <path id="svg_1" fill="#f2f2f2" d="m725.21377,492.91543c-5.05211,17.52641 -19.80364,29.79509 -35.19135,40.21716q-3.22281,2.18327 -6.44767,4.266c-0.01456,0.00636 -0.02957,0.02 -0.04431,0.02649c-0.10344,0.06645 -0.20707,0.133 -0.30345,0.19991c-0.44371,0.286 -0.88758,0.57222 -1.32761,0.855l0.24171,0.10858s0.23734,0.12621 -0.02233,0.02023c-0.07729,-0.03232 -0.15825,-0.06135 -0.23538,-0.09387c-8.93928,-3.60535 -18.03734,-7.47639 -24.88795,-14.23041c-7.10651,-7.0136 -11.25953,-18.01413 -7.41142,-27.228a17.59237,17.59237 0 0 1 1.90487,-3.41883c0.31213,-0.44666 0.64831,-0.87416 0.99832,-1.29373a18.85591,18.85591 0 0 1 32.3856,5.72979c1.1305,-10.52576 -7.5488,-19.34265 -15.90135,-25.84822c-8.35623,-6.50228 -17.85126,-13.58341 -19.46674,-24.05074c-0.90215,-5.82388 1.123,-11.46778 4.81223,-15.99852c0.11422,-0.13766 0.22827,-0.27514 0.34591,-0.409a27.5185,27.5185 0 0 1 17.68718,-9.48884c12.81321,-1.33167 25.25927,5.4506 34.56778,14.35941c14.98194,14.33365 24.03922,36.35016 18.29596,56.27759z"/>
  <path id="svg_2" fill="#fff" d="m701.12957,469.99107a46.78,46.78 0 0 1 5.60443,12.36093a40.61926,40.61926 0 0 1 1.404,11.99679a52.04375,52.04375 0 0 1 -6.81623,23.68462a74.90315,74.90315 0 0 1 -11.29935,15.09918q-3.22281,2.18327 -6.44767,4.266c-0.01456,0.00636 -0.02957,0.02 -0.04431,0.02649c-0.10344,0.06645 -0.20707,0.133 -0.30345,0.19991c-0.44371,0.286 -0.88758,0.57222 -1.32761,0.855c0,0 0.479,0.23479 0.21938,0.12881c-0.07729,-0.03232 -0.15825,-0.06135 -0.23538,-0.09387a41.40477,41.40477 0 0 0 -13.249,-35.65079a41.75936,41.75936 0 0 0 -17.1455,-9.22645c0.31213,-0.44666 0.64831,-0.87416 0.99832,-1.29373a43.29621,43.29621 0 0 1 7.14663,2.70436a42.42388,42.42388 0 0 1 19.1818,18.49347a43.37374,43.37374 0 0 1 4.72252,23.80133c0.36729,-0.33284 0.735,-0.67291 1.09168,-1.00976c6.79289,-6.33309 12.82633,-13.60244 16.90958,-21.99189a48.41635,48.41635 0 0 0 5.06984,-22.90745c-0.33324,-8.65329 -3.781,-16.66846 -8.77294,-23.64614a101.34547,101.34547 0 0 0 -19.2105,-19.79842a115.15845,115.15845 0 0 0 -23.89219,-14.75057a0.828,0.828 0 0 1 -0.41668,-1.06262a0.70423,0.70423 0 0 1 0.34591,-0.409a0.61309,0.61309 0 0 1 0.53242,0.02262c1.05391,0.48518 2.10049,0.977 3.13868,1.49007a116.46492,116.46492 0 0 1 24.06242,15.87263c7.08279,6.03853 13.75083,12.93754 18.7332,20.83848z"/>
  <path id="svg_3" fill="#3f3d56" d="m615.71972,19.99989l-607,0a8.72767,8.72767 0 0 0 -8.71972,8.72l0,411.31998a8.72766,8.72766 0 0 0 8.71972,8.72l607,0a8.71244,8.71244 0 0 0 6.63037,-3.06a2.0459,2.0459 0 0 0 0.18995,-0.24a8.1667,8.1667 0 0 0 1.25,-2.11005a8.50722,8.50722 0 0 0 0.65966,-3.31l0,-411.31989a8.72954,8.72954 0 0 0 -8.72998,-8.72004zm6.24024,420.04a6.17535,6.17535 0 0 1 -1.03028,3.42005a6.44588,6.44588 0 0 1 -2.35986,2.12a6.1843,6.1843 0 0 1 -2.8501,0.69l-607,0a6.23757,6.23757 0 0 1 -6.23,-6.23l0,-411.32001a6.23757,6.23757 0 0 1 6.23,-6.23l607,0a6.23944,6.23944 0 0 1 6.24024,6.23l0,411.31996z"/>
  <rect id="svg_4" fill="#3f3d56" height="2.49281" width="621.95676" y="54.94909" x="1.24265"/>
  <circle id="svg_5" fill="#3f3d56" r="7.47844" cy="38.69598" cx="22.43155"/>
  <circle id="svg_6" fill="#3f3d56" r="7.47844" cy="38.69598" cx="43.93206"/>
  <circle id="svg_7" fill="#3f3d56" r="7.47844" cy="38.69598" cx="65.43257"/>
  <path id="svg_8" fill="#ef6820" d="m402.81213,195.36057a20.17421,20.17421 0 1 1 20.17421,-20.17421a20.197,20.197 0 0 1 -20.17421,20.17421zm0,-38.43649a18.26228,18.26228 0 1 0 18.26228,18.26228a18.283,18.283 0 0 0 -18.26228,-18.26228z"/>
  <path fill="#ef6820" d="m400.9077,182.51748a1.9932,1.9932 0 0 1 -1.19913,-0.39852l-0.02145,-0.01609l-4.51653,-3.455a2.00711,2.00711 0 0 1 2.44234,-3.18575l2.92544,2.24336l6.913,-9.01874a2.00626,2.00626 0 0 1 2.81288,-0.37155l0.00058,0.00044l-0.0429,0.05957l0.04407,-0.05957a2.00868,2.00868 0 0 1 0.3711,2.81344l-8.13122,10.60327a2.00749,2.00749 0 0 1 -1.59645,0.78273l-0.00173,0.00241z" data-name="Path 395" id="f1f767dc-4b88-4f47-9e03-7555881e6705-1276"/>
  <path id="svg_9" fill="#e6e6e6" d="m460.53688,195.36057a20.17421,20.17421 0 1 1 20.17421,-20.17421a20.19676,20.19676 0 0 1 -20.17421,20.17421zm0,-38.43649a18.26228,18.26228 0 1 0 18.26228,18.26228a18.28279,18.28279 0 0 0 -18.26228,-18.26228z"/>
  <path id="svg_10" fill="#e6e6e6" d="m467.79875,182.1666a1.2928,1.2928 0 0 1 -1.8261,0l-4.841,-4.841a0.57612,0.57612 0 0 0 -0.81385,-0.00012l-4.841,4.841a1.29142,1.29142 0 0 1 -1.82635,-1.82635l4.841,-4.841a0.57583,0.57583 0 0 0 0.00012,-0.81359l-4.84126,-4.84127a1.29116,1.29116 0 0 1 1.826,-1.826l4.84127,4.84126a0.57583,0.57583 0 0 0 0.81359,-0.00012l4.841,-4.841a1.29142,1.29142 0 0 1 1.82634,1.82635l-4.841,4.841a0.57612,0.57612 0 0 0 0.00012,0.81383l4.841,4.841a1.29276,1.29276 0 0 1 0.00012,1.82601z"/>
  <path id="svg_11" fill="#ef6820" d="m402.81213,259.41018a20.17421,20.17421 0 1 1 20.17421,-20.17421a20.197,20.197 0 0 1 -20.17421,20.17421zm0,-38.43649a18.26228,18.26228 0 1 0 18.26228,18.26228a18.283,18.283 0 0 0 -18.26228,-18.26228z"/>
  <path fill="#ef6820" d="m400.9077,246.56707a1.99333,1.99333 0 0 1 -1.19913,-0.39852l-0.02145,-0.01609l-4.51653,-3.455a2.00711,2.00711 0 0 1 2.44234,-3.18575l2.92544,2.24336l6.913,-9.01874a2.00626,2.00626 0 0 1 2.81288,-0.37155l0.00058,0.00044l-0.0429,0.05957l0.04407,-0.05957a2.00868,2.00868 0 0 1 0.3711,2.81344l-8.13122,10.60329a2.00747,2.00747 0 0 1 -1.59645,0.78273l-0.00173,0.00239z" data-name="Path 395" id="a793c70c-1521-4e6e-9b61-9683a9490971-1277"/>
  <path id="svg_12" fill="#e6e6e6" d="m460.53688,259.41018a20.17421,20.17421 0 1 1 20.17421,-20.17421a20.19676,20.19676 0 0 1 -20.17421,20.17421zm0,-38.43649a18.26228,18.26228 0 1 0 18.26228,18.26228a18.28279,18.28279 0 0 0 -18.26228,-18.26228z"/>
  <path id="svg_13" fill="#e6e6e6" d="m467.79875,246.21621a1.29279,1.29279 0 0 1 -1.8261,0l-4.841,-4.841a0.57612,0.57612 0 0 0 -0.81383,-0.00012l-4.841,4.841a1.29142,1.29142 0 0 1 -1.82635,-1.82635l4.841,-4.841a0.57583,0.57583 0 0 0 0.00012,-0.81359l-4.84126,-4.84126a1.29116,1.29116 0 0 1 1.826,-1.826l4.84127,4.84127a0.57583,0.57583 0 0 0 0.81359,-0.00013l4.841,-4.841a1.29142,1.29142 0 0 1 1.82634,1.82635l-4.841,4.841a0.57614,0.57614 0 0 0 0.00012,0.81384l4.841,4.841a1.29275,1.29275 0 0 1 0.0001,1.82599z"/>
  <path id="svg_14" fill="#e6e6e6" d="m402.81213,323.45979a20.17421,20.17421 0 1 1 20.17421,-20.17421a20.197,20.197 0 0 1 -20.17421,20.17421zm0,-38.43649a18.26228,18.26228 0 1 0 18.26228,18.26228a18.283,18.283 0 0 0 -18.26228,-18.26228z"/>
  <path fill="#e6e6e6" d="m400.9077,310.61668a1.9932,1.9932 0 0 1 -1.19913,-0.39852l-0.02145,-0.01609l-4.51653,-3.455a2.00711,2.00711 0 0 1 2.44234,-3.18575l2.92544,2.24337l6.913,-9.01875a2.00626,2.00626 0 0 1 2.81288,-0.37154l0.00058,0.00043l-0.0429,0.05958l0.04407,-0.05958a2.00869,2.00869 0 0 1 0.3711,2.81345l-8.13122,10.60328a2.0075,2.0075 0 0 1 -1.59645,0.78274l-0.00173,0.00238z" data-name="Path 395" id="b02a55c8-7c5c-410c-bde7-66a7a3b003d7-1278"/>
  <path id="svg_15" fill="#e6e6e6" d="m460.53688,323.45979a20.17421,20.17421 0 1 1 20.17421,-20.17421a20.19676,20.19676 0 0 1 -20.17421,20.17421zm0,-38.43649a18.26228,18.26228 0 1 0 18.26228,18.26228a18.28279,18.28279 0 0 0 -18.26228,-18.26228z"/>
  <path id="svg_16" fill="#e6e6e6" d="m467.79875,310.26582a1.29278,1.29278 0 0 1 -1.8261,0l-4.841,-4.841a0.57612,0.57612 0 0 0 -0.81383,-0.00013l-4.841,4.841a1.29142,1.29142 0 0 1 -1.82635,-1.82635l4.841,-4.841a0.57585,0.57585 0 0 0 0.00012,-0.8136l-4.84126,-4.84126a1.29116,1.29116 0 0 1 1.826,-1.826l4.84127,4.84127a0.57582,0.57582 0 0 0 0.81359,-0.00013l4.841,-4.841a1.29142,1.29142 0 0 1 1.82634,1.82634l-4.841,4.841a0.57614,0.57614 0 0 0 0.00012,0.81384l4.841,4.841a1.29275,1.29275 0 0 1 0.0001,1.82602z"/>
  <path id="svg_17" fill="#3f3d56" d="m737.41776,538.35639l-381,0a1,1 0 0 1 0,-2l381,0a1,1 0 1 1 0,2z"/>
  <path id="svg_18" fill="#ffb8b8" d="m410.65903,251.44163a10.05577,10.05577 0 0 0 14.588,-4.99449l35.71507,1.18876l-9.70168,-15.83386l-32.42826,1.29863a10.11027,10.11027 0 0 0 -8.17317,18.341l0.00004,-0.00004z"/>
  <path id="svg_19" fill="#ffb8b8" d="m612.03282,328.80148a10.05577,10.05577 0 0 0 -2.36251,-15.23727l7.42514,-34.95492l-17.28821,6.77877l-4.40057,32.15452a10.11028,10.11028 0 0 0 16.62615,11.2589z"/>
  <polygon id="svg_20" fill="#ffb8b8" points="528.3690185546875,510.9739873409271 516.1090087890625,510.972980260849 510.2770080566406,463.6849858760834 528.3709716796875,463.6859929561615 528.3690185546875,510.9739873409271 "/>
  <path id="svg_21" fill="#2f2e41" d="m531.49511,522.85786l-39.53051,-0.00147l0,-0.5a15.38605,15.38605 0 0 1 15.38647,-15.38623l0.001,0l24.1438,0.001l-0.00076,15.8867z"/>
  <polygon id="svg_22" fill="#ffb8b8" points="588.3690185546875,510.9739873409271 576.1090087890625,510.972980260849 570.2769775390625,463.6849858760834 588.3709716796875,463.6859929561615 588.3690185546875,510.9739873409271 "/>
  <path id="svg_23" fill="#2f2e41" d="m591.49511,522.85786l-39.53051,-0.00147l0,-0.5a15.38605,15.38605 0 0 1 15.38647,-15.38623l0.001,0l24.1438,0.001l-0.00076,15.8867z"/>
  <path id="svg_24" fill="#2f2e41" d="m529.64597,486.28156l-17.35474,-0.69434a4.51413,4.51413 0 0 1 -4.31787,-4.63379l4.88941,-160.3789l0.31933,-0.11524c30.41626,-11.00293 55.57837,-10.17089 76.926,2.54l0.23877,0.14258l2.92901,156.20219a4.49958,4.49958 0 0 1 -4.49927,4.585l-14.634,0a4.50994,4.50994 0 0 1 -4.41577,-3.63184l-19.93512,-101.40922a1.49976,1.49976 0 0 0 -2.96069,0.10938l-12.53809,103.3301a4.52553,4.52553 0 0 1 -4.46924,3.957c-0.05882,0 -0.1184,-0.001 -0.17773,-0.00292z"/>
  <circle id="svg_25" fill="#ffb8b8" r="24.56103" cy="155.36601" cx="546.52944"/>
  <path id="svg_26" fill="#ccc" d="m431.06276,245.63782a4.50562,4.50562 0 0 1 -0.00148,-2.68558l2.54474,-8.15344a4.51468,4.51468 0 0 1 4.097,-3.15453l32.22309,-1.42457l52.27834,-26.79842a14.49652,14.49652 0 1 1 8.78475,27.63011l-32.03805,18.58289a46.37353,46.37353 0 0 1 -32.19507,5.3964l-32.26439,-6.32137a4.505,4.505 0 0 1 -3.00019,-2.11226a4.45458,4.45458 0 0 1 -0.42874,-0.95923z"/>
  <path id="svg_27" fill="#ccc" d="m610.98411,306.17096a4.50565,4.50565 0 0 1 -2.68308,0.11591l-8.25448,-2.195a4.5147,4.5147 0 0 1 -3.32625,-3.95888l-2.7964,-32.13312l-29.00182,-51.08886a14.49652,14.49652 0 1 1 27.23067,-9.95418l19.93125,31.2171a46.37348,46.37348 0 0 1 6.76343,31.93586l-4.94075,32.50446a4.50493,4.50493 0 0 1 -1.98249,3.08747a4.45456,4.45456 0 0 1 -0.94008,0.46924z"/>
  <path id="svg_28" fill="#ccc" d="m519.66477,198.98328a41.8225,41.8225 0 0 1 33.53711,-13.55957q0.616,0.03809 1.227,0.08594l0.00049,0a41.73426,41.73426 0 0 1 30.15966,16.64648a42.362,42.362 0 0 1 7.52491,34.14453a132.361,132.361 0 0 0 3.49658,67.876l6.58887,20.459a4.49852,4.49852 0 0 1 -4.042,5.87207l-33.68505,1.811l-8.62012,-14.88971l0,15.35315l-40.94092,2.20111c-0.08154,0.00488 -0.1626,0.00684 -0.24316,0.00684a4.5,4.5 0 0 1 -4.48389,-4.86133l4.62744,-57.38184l-5.8042,-38.97265a42.08923,42.08923 0 0 1 10.65728,-34.79102z"/>
  <path id="svg_29" fill="#2f2e41" d="m563.59927,178.81302c-2.274,1.30843 -11.26246,2.176 -11.90277,-0.36826l-0.01372,-0.0559c-0.44576,-1.86412 -0.0756,-3.81068 0.05233,-5.72308s-0.05926,-4.01326 -1.36175,-5.41937c-2.428,-2.62114 -6.74756,-1.23165 -10.25844,-1.8944a8.66428,8.66428 0 0 1 -6.74006,-9.25291c0.05,-0.3975 0.1284,-0.79545 0.21633,-1.19315a6.67289,6.67289 0 0 0 -6.92676,-8.0813c-3.5481,0.20289 -7.378,1.2779 -10.31357,-1.35011c-2.2701,-2.03224 -2.82395,-7.32236 -1.82653,-10.20134c1.67623,-4.8383 12.4137,-7.37124 17.10185,-8.76367a40.62024,40.62024 0 0 1 34.43036,5.64955c2.96119,2.08724 5.72662,4.70983 6.98873,8.10575s0.65322,7.6803 -2.19277,9.92206a18.332,18.332 0 0 1 4.24618,17.80643c-1.40569,4.52946 -8.11444,8.87203 -11.49941,10.8197z"/>
  <path id="svg_30" fill="#ef6820" d="m224.62164,180.07297l-157.26089,0a7.64772,7.64772 0 0 1 0,-15.29543l157.26089,0a7.64772,7.64772 0 0 1 0,15.29543z"/>
  <path id="svg_31" fill="#3f3d56" d="m321.71304,186.59505l-270,0a1,1 0 0 1 0,-2l270,0a1,1 0 0 1 0,2z"/>
  <path id="svg_32" fill="#ef6820" d="m224.62164,244.12259l-157.26089,0a7.64771,7.64771 0 0 1 0,-15.29543l157.26089,0a7.64772,7.64772 0 0 1 0,15.29543z"/>
  <path id="svg_33" fill="#3f3d56" d="m321.71304,250.64485l-270,0a1,1 0 0 1 0,-2l270,0a1,1 0 0 1 0,2z"/>
  <path id="svg_34" fill="#f2f2f2" d="m224.62164,308.1722l-157.26089,0a7.64771,7.64771 0 0 1 0,-15.29543l157.26089,0a7.64772,7.64772 0 0 1 0,15.29543z"/>
  <path id="svg_35" fill="#3f3d56" d="m321.71304,314.69417l-270,0a1,1 0 1 1 0,-2l270,0a1,1 0 0 1 0,2z"/>
 </g>
</svg>